<svg version="1.1" xmlns="http://www.w3.org/2000/svg" xmlns:xlink="http://www.w3.org/1999/xlink" x="0px" y="0px" viewBox="0 0 1000 1000" enable-background="new 0 0 1000 1000" xml:space="preserve" >
<g><path fill="currentColor" d="M985.9,510.8L585.6,110.5c-22.8-22.8-53.2-35.3-85.6-35.3c-32.4,0-62.8,12.5-85.6,35.3L14.1,510.8c-5.5,5.5-5.5,14.4,0,19.8c5.5,5.5,14.4,5.5,19.8,0l62-62v335.1c0,66.7,54.3,121,121,121h566.1c66.7,0,121-54.3,121-121V468.7l62,62c2.7,2.7,6.3,4.1,9.9,4.1c3.6,0,7.2-1.4,9.9-4.1C991.4,525.2,991.4,516.3,985.9,510.8z M642.7,896.8H357.3V615.1c0-18.1,14.7-32.7,32.7-32.7h219.8c18.1,0,32.7,14.7,32.7,32.7V896.8z M876,803.8c0,51.3-41.7,92.9-92.9,92.9H670.7V615.1c0-33.5-27.3-60.8-60.8-60.8H390.1c-33.5,0-60.8,27.3-60.8,60.8v281.7H216.9c-51.3,0-92.9-41.7-92.9-93V440.6l310.3-310.3c17.5-17.5,40.8-27.1,65.7-27.1c24.9,0,48.3,9.6,65.7,27.1L876,440.6V803.8L876,803.8z"/><g></g><g></g><g></g><g></g><g></g><g></g><g></g><g></g><g></g><g></g><g></g><g></g><g></g><g></g><g></g></g>
</svg>