<svg id="Layer_1" data-name="Layer 1" xmlns="http://www.w3.org/2000/svg" viewBox="0 0 200 200"><defs><style>.cls-1{fill:#fff;}.cls-2{font-size:47.06px;fill:#b41d25;}.cls-2,.cls-3{font-family:Agrandir-Thin, Agrandir;font-weight:200;}.cls-3{font-size:29.41px;}.cls-4{letter-spacing:-0.05em;}.cls-5{letter-spacing:-0.09em;}.cls-6{letter-spacing:-0.08em;}.cls-7{letter-spacing:0em;}.cls-10,.cls-8,.cls-9{fill:none;stroke-miterlimit:10;}.cls-8,.cls-9{stroke:#000;}.cls-10,.cls-8{stroke-width:2px;}.cls-10{stroke:#b41d25;}</style></defs><title>1</title><rect class="cls-1" x="3.7" y="4" width="192" height="192"/><text class="cls-2" transform="translate(38.74 106.62)">BIG</text><text class="cls-3" transform="translate(40.05 129.49)"><tspan class="cls-4">B</tspan><tspan class="cls-5" x="17.06" y="0">Y</tspan><tspan x="30.59" y="0">A</tspan><tspan class="cls-6" x="49.03" y="0">P</tspan><tspan class="cls-7" x="64.47" y="0">AAR</tspan></text><circle class="cls-8" cx="95.45" cy="100.35" r="82.35"/><circle class="cls-9" cx="103.95" cy="100.35" r="82.35"/><circle class="cls-10" cx="99.38" cy="100.35" r="82.35"/><path d="M134,100a3.5,3.5,0,1,0,3.5,3.5A3.5,3.5,0,0,0,134,100Zm0,5.45a1.95,1.95,0,1,1,1.94-2A1.95,1.95,0,0,1,134,105.43Z"/><path d="M149.59,100a3.5,3.5,0,1,0,3.49,3.49A3.5,3.5,0,0,0,149.59,100Zm0,5.44a1.95,1.95,0,1,1,1.94-2A2,2,0,0,1,149.59,105.43Z"/><path d="M159,76a1.15,1.15,0,0,0-.75-.37l-30.2-.42-.84-2.55a4.26,4.26,0,0,0-4-2.88h-3.11a.93.93,0,0,0,0,1.86h3.11a2.41,2.41,0,0,1,2.23,1.62L131.35,91l-.46,1.07a4.45,4.45,0,0,0,.42,4A4.32,4.32,0,0,0,134.79,98h18.05a.93.93,0,0,0,0-1.85H134.79a2.36,2.36,0,0,1-1.95-1.12,2.52,2.52,0,0,1-.23-2.22L133,92l19.53-2a5.11,5.11,0,0,0,4.41-3.9l2.23-9.32A.81.81,0,0,0,159,76Zm-3.9,9.7a3.14,3.14,0,0,1-2.83,2.45l-19.3,2L128.66,77l28.44.41Z"/></svg>