<?xml version="1.0" encoding="utf-8"?>
<!-- Generator: Adobe Illustrator 23.0.2, SVG Export Plug-In . SVG Version: 6.00 Build 0)  -->
<svg version="1.1" id="Layer_1" xmlns="http://www.w3.org/2000/svg" xmlns:xlink="http://www.w3.org/1999/xlink" x="0px" y="0px"
	 viewBox="0 0 50 50" style="enable-background:new 0 0 50 50;" xml:space="preserve">
<style type="text/css">
	.st0{opacity:0;fill:none;stroke:#000000;stroke-miterlimit:10;}
</style>
<path class="st0" d="M18.74,14.66l-4.95,4.86h17.28l4.81-4.86H18.74z M18.74,14.66l-4.95,4.86h17.28l4.81-4.86H18.74z M7,10v33h38
	V10H7z M30.5,40.5c-0.55,0-1.05-0.22-1.41-0.59H12.26c-0.34,0-0.62-0.28-0.62-0.63V20.15c0-0.01,0-0.01,0-0.01v-0.06
	c0-0.02,0.01-0.04,0.01-0.06c0-0.01,0-0.02,0.01-0.03v-0.03c0.01-0.01,0.01-0.02,0.02-0.03c0-0.01,0-0.02,0.01-0.03
	c0,0,0-0.01,0.01-0.02c0-0.01,0.01-0.02,0.01-0.03c0.01-0.01,0.01-0.01,0.01-0.02c0.01-0.01,0.02-0.03,0.03-0.04
	s0.02-0.03,0.03-0.04c0-0.01,0.01-0.01,0.01-0.02l0.03-0.03l6.22-6.11c0.01-0.01,0.02-0.01,0.02-0.02c0.01-0.01,0.02-0.01,0.03-0.02
	c0.01-0.01,0.01-0.01,0.02-0.02s0.02-0.01,0.03-0.02c0.01,0,0.02-0.01,0.02-0.02c0.01,0,0.02,0,0.03-0.01
	c0.01,0,0.02-0.01,0.03-0.01c0.01-0.01,0.02-0.01,0.02-0.02c0.02,0,0.02,0,0.03-0.01c0.01,0,0.02,0,0.03-0.01h0.03
	c0.01-0.01,0.02-0.01,0.03-0.01s0.02,0,0.03-0.01h0.07c0.01,0,0.02,0,0.02,0h19.08c0.34,0,0.62,0.28,0.62,0.62v13.63h-1.25V15.37
	l-4.97,5.03V29H30.7v-7h0.01v-1.23H26v-0.01h-8v0.01h-5.11v17.89h15.62c-0.01-0.05-0.01-0.1-0.01-0.16c0-0.13,0.01-0.26,0.04-0.38
	l0.53,0.54H30v0.93l0.16,0.16l2.13-2.13c0.14,0.27,0.21,0.56,0.21,0.88C32.5,39.6,31.6,40.5,30.5,40.5z M35.88,14.66H18.74
	l-4.95,4.86h17.28L35.88,14.66z M18.74,14.66l-4.95,4.86h17.28l4.81-4.86H18.74z M18.74,14.66l-4.95,4.86h17.28l4.81-4.86H18.74z"/>
<path d="M29.07,38.66L30,39.59v-0.93H29.07z M37.56,13.41H18.48c0,0-0.01,0-0.02,0h-0.07c-0.01,0.01-0.02,0.01-0.03,0.01
	s-0.02,0-0.03,0.01H18.3c-0.01,0.01-0.02,0.01-0.03,0.01c-0.01,0.01-0.01,0.01-0.03,0.01c0,0.01-0.01,0.01-0.02,0.02
	c-0.01,0-0.02,0.01-0.03,0.01c-0.01,0.01-0.02,0.01-0.03,0.01c0,0.01-0.01,0.02-0.02,0.02c-0.01,0.01-0.02,0.01-0.03,0.02
	s-0.01,0.01-0.02,0.02c-0.01,0.01-0.02,0.01-0.03,0.02c0,0.01-0.01,0.01-0.02,0.02l-6.22,6.11l-0.03,0.03
	c0,0.01-0.01,0.01-0.01,0.02c-0.01,0.01-0.02,0.03-0.03,0.04s-0.02,0.03-0.03,0.04c0,0.01,0,0.01-0.01,0.02
	c0,0.01-0.01,0.02-0.01,0.03c-0.01,0.01-0.01,0.02-0.01,0.02c-0.01,0.01-0.01,0.02-0.01,0.03c-0.01,0.01-0.01,0.02-0.02,0.03v0.03
	c-0.01,0.01-0.01,0.02-0.01,0.03c0,0.02-0.01,0.04-0.01,0.06v0.06c0,0,0,0,0,0.01v19.13c0,0.35,0.28,0.63,0.62,0.63h16.83
	c-0.33-0.32-0.54-0.76-0.58-1.25H12.89V20.77H18v-0.01h8v0.01h4.71V22H30.7v7h1.26v-8.6l4.97-5.03v12.29h1.25V14.03
	C38.18,13.69,37.9,13.41,37.56,13.41z M31.07,19.52H13.79l4.95-4.86h17.14L31.07,19.52z"/>
<polygon points="42,27.93 32.29,37.62 30.16,39.75 30,39.59 29.07,38.66 28.54,38.12 24,33.57 25.68,31.89 30.16,36.37 40.3,26.25 
	"/>
</svg>
