<?xml version="1.0" encoding="utf-8"?>
<!-- Generator: Adobe Illustrator 23.0.2, SVG Export Plug-In . SVG Version: 6.00 Build 0)  -->
<svg version="1.1" id="Layer_1" xmlns="http://www.w3.org/2000/svg" xmlns:xlink="http://www.w3.org/1999/xlink" x="0px" y="0px"
	 viewBox="0 0 50 50" style="enable-background:new 0 0 50 50;" xml:space="preserve">
<style type="text/css">
	.st0{fill:#050505;}
	.st1{fill:none;stroke:#000000;stroke-miterlimit:10;stroke-opacity:0;}
</style>
<path class="st0" d="M37.56,13.41H18.48c0,0-0.01,0-0.02,0h-0.07c-0.01,0.01-0.02,0.01-0.03,0.01s-0.02,0-0.03,0.01H18.3
	c-0.01,0.01-0.02,0.01-0.03,0.01c-0.01,0.01-0.01,0.01-0.03,0.01c0,0.01-0.01,0.01-0.02,0.02c-0.01,0-0.02,0.01-0.03,0.01
	c-0.01,0.01-0.02,0.01-0.03,0.01c0,0.01-0.01,0.02-0.02,0.02c-0.01,0.01-0.02,0.01-0.03,0.02s-0.01,0.01-0.02,0.02
	s-0.02,0.01-0.03,0.02c0,0.01-0.01,0.01-0.02,0.02l-6.22,6.11l-0.03,0.03c0,0.01-0.01,0.01-0.01,0.02
	c-0.01,0.01-0.02,0.03-0.03,0.04s-0.02,0.03-0.03,0.04c0,0.01,0,0.01-0.01,0.02c0,0.01-0.01,0.02-0.01,0.03
	c-0.01,0.01-0.01,0.02-0.01,0.02c-0.01,0.01-0.01,0.02-0.01,0.03c-0.01,0.01-0.01,0.02-0.02,0.03v0.03
	c-0.01,0.01-0.01,0.02-0.01,0.03c0,0.02-0.01,0.04-0.01,0.06v0.06c0,0,0,0,0,0.01v19.13c0,0.35,0.28,0.63,0.62,0.63h16.56
	l-0.29-1.25H12.89V20.77H18v-0.01h8v0.01h4.71v6.09c0.19-0.09,0.4-0.14,0.62-0.14c0.23,0,0.44,0.05,0.63,0.15V20.4l4.97-5.03v12.29
	h1.25V14.03C38.18,13.69,37.9,13.41,37.56,13.41z M31.07,19.52H13.79l4.95-4.86h17.14L31.07,19.52z"/>
<rect x="7" y="10" class="st1" width="38" height="33"/>
<g>
	<path class="st0" d="M37.59,27.11l-1.42-0.66c-0.83-0.3-1.73-0.46-2.66-0.46c-1.05,0-2.05,0.2-2.97,0.57l-1.41,0.74
		c-2.17,1.43-3.61,3.89-3.61,6.69c0,1.59,0.47,3.07,1.27,4.32l1.16,1.41c1.44,1.41,3.41,2.27,5.57,2.27c4.41,0,8-3.59,8-8
		C41.51,31.06,39.94,28.5,37.59,27.11z M33.51,40.57c-1.23,0-2.38-0.34-3.36-0.93h0c-0.36-0.21-0.7-0.46-1.01-0.74
		c-0.21-0.19-0.41-0.38-0.59-0.6c-1.01-1.16-1.62-2.66-1.62-4.32c0-1.94,0.85-3.7,2.2-4.9c0.42-0.38,0.9-0.71,1.41-0.97
		c0.89-0.46,1.9-0.71,2.97-0.71c0.95,0,1.85,0.2,2.66,0.57c0.51,0.23,0.99,0.52,1.42,0.86c1.52,1.21,2.51,3.07,2.51,5.16
		C40.1,37.61,37.14,40.57,33.51,40.57z"/>
	<path class="st0" d="M36.56,33.39c-0.05-0.01-0.11-0.02-0.16-0.02h-1.15h-0.69h-0.72l-1.53-1.8l-1.39-1.64
		c-0.1-0.12-0.24-0.2-0.38-0.23c-0.21-0.05-0.44,0-0.62,0.15c-0.3,0.25-0.34,0.7-0.08,1l0.7,0.83l2.43,2.87
		c0.06,0.07,0.14,0.13,0.22,0.18c0.1,0.05,0.2,0.08,0.32,0.08h1.63h1.26c0.39,0,0.71-0.32,0.71-0.71
		C37.11,33.74,36.87,33.46,36.56,33.39z"/>
</g>
</svg>
