<?xml version="1.0" encoding="utf-8"?>
<!-- Generator: Adobe Illustrator 23.0.2, SVG Export Plug-In . SVG Version: 6.00 Build 0)  -->
<svg version="1.1" id="Layer_1" xmlns="http://www.w3.org/2000/svg" xmlns:xlink="http://www.w3.org/1999/xlink" x="0px" y="0px"
	 viewBox="0 0 50 50" style="enable-background:new 0 0 50 50;" xml:space="preserve">
<style type="text/css">
	.st0{fill:#050505;}
	.st1{opacity:0;fill:none;stroke:#000000;stroke-miterlimit:10;}
</style>
<path class="st0" d="M37.56,13.41H18.48c0,0-0.01,0-0.02,0h-0.07c-0.01,0.01-0.02,0.01-0.03,0.01s-0.02,0-0.03,0.01H18.3
	c-0.01,0.01-0.02,0.01-0.03,0.01c-0.01,0.01-0.01,0.01-0.03,0.01c0,0.01-0.01,0.01-0.02,0.02c-0.01,0-0.02,0.01-0.03,0.01
	c-0.01,0.01-0.02,0.01-0.03,0.01c0,0.01-0.01,0.02-0.02,0.02c-0.01,0.01-0.02,0.01-0.03,0.02s-0.01,0.01-0.02,0.02
	c-0.01,0.01-0.02,0.01-0.03,0.02c0,0.01-0.01,0.01-0.02,0.02l-6.22,6.11l-0.03,0.03c0,0.01-0.01,0.01-0.01,0.02
	c-0.01,0.01-0.02,0.03-0.03,0.04s-0.02,0.03-0.03,0.04c0,0.01,0,0.01-0.01,0.02c0,0.01-0.01,0.02-0.01,0.03
	c-0.01,0.01-0.01,0.02-0.01,0.02c-0.01,0.01-0.01,0.02-0.01,0.03c-0.01,0.01-0.01,0.02-0.02,0.03v0.03
	c-0.01,0.01-0.01,0.02-0.01,0.03c0,0.02-0.01,0.04-0.01,0.06v0.06c0,0,0,0,0,0.01v19.13c0,0.35,0.28,0.63,0.62,0.63h16.56
	l-0.29-1.25H12.89V20.77H18v-0.01h8v0.01h4.71v6.09c0.19-0.09,0.4-0.14,0.62-0.14c0.23,0,0.44,0.05,0.63,0.15V20.4l4.97-5.03v12.29
	h1.25V14.03C38.18,13.69,37.9,13.41,37.56,13.41z M31.07,19.52H13.79l4.95-4.86h17.14L31.07,19.52z"/>
<rect x="7" y="10" class="st1" width="38" height="33"/>
<path d="M31.3,27.66c0.36-0.04,0.69,0.22,0.73,0.59c0.04,0.36-0.22,0.69-0.59,0.73c-0.36,0.04-0.69-0.22-0.73-0.59
	C30.68,28.02,30.94,27.7,31.3,27.66z M27.19,32.75c0.04,0.36,0.36,0.63,0.73,0.59c0.36-0.04,0.63-0.36,0.59-0.73
	c-0.04-0.36-0.36-0.63-0.73-0.59C27.41,32.06,27.15,32.38,27.19,32.75z M28.38,30.1c0.04,0.36,0.36,0.63,0.73,0.59
	c0.36-0.04,0.63-0.36,0.59-0.73c-0.04-0.36-0.36-0.63-0.73-0.59C28.6,29.41,28.34,29.74,28.38,30.1z M38.09,29.27
	c-0.97-1.01-2.24-1.69-3.63-1.93c-0.36-0.06-0.7,0.18-0.76,0.54c-0.06,0.36,0.18,0.7,0.54,0.76c0,0,0,0,0.01,0
	c1.1,0.19,2.12,0.73,2.89,1.54c0.79,0.82,1.28,1.89,1.4,3.02c0.3,2.84-1.77,5.39-4.61,5.69c-1.13,0.12-2.27-0.13-3.24-0.73
	c-0.4-0.25-0.77-0.55-1.1-0.9l-0.38-0.04l0.17,1.64c2.8,2.18,6.82,1.72,9.05-1.04C40.5,35.3,40.35,31.64,38.09,29.27L38.09,29.27z
	 M29.05,39.86l-0.33-3.12l3.22,0.37c0.36,0.04,0.69-0.22,0.73-0.58c0.04-0.36-0.22-0.69-0.58-0.73l-4.04-0.46
	c-0.36-0.04-0.69,0.22-0.73,0.58c-0.01,0.05-0.01,0.1,0,0.14L27.74,40c0.04,0.36,0.36,0.63,0.73,0.59
	C28.83,40.55,29.09,40.22,29.05,39.86z"/>
<rect x="36.93" y="26.5" width="1.25" height="3.5"/>
</svg>
