<?xml version="1.0" encoding="utf-8"?>
<!-- Generator: Adobe Illustrator 23.0.2, SVG Export Plug-In . SVG Version: 6.00 Build 0)  -->
<svg version="1.1" id="Layer_1" xmlns="http://www.w3.org/2000/svg" xmlns:xlink="http://www.w3.org/1999/xlink" x="0px" y="0px"
	 viewBox="0 0 50 50" style="enable-background:new 0 0 50 50;" xml:space="preserve">
<style type="text/css">
	.st0{opacity:0;fill:none;stroke:#000000;stroke-miterlimit:10;}
	.st1{fill:#050505;}
</style>
<path class="st0" d="M18.74,14.66l-4.95,4.86h17.28l4.81-4.86H18.74z M18.74,14.66l-4.95,4.86h17.28l4.81-4.86H18.74z M7,10v33h38
	V10H7z M30.5,40.5c-0.55,0-1.05-0.22-1.41-0.59H12.26c-0.34,0-0.62-0.28-0.62-0.63V20.15c0-0.01,0-0.01,0-0.01v-0.06
	c0-0.02,0.01-0.04,0.01-0.06c0-0.01,0-0.02,0.01-0.03v-0.03c0.01-0.01,0.01-0.02,0.02-0.03c0-0.01,0-0.02,0.01-0.03
	c0,0,0-0.01,0.01-0.02c0-0.01,0.01-0.02,0.01-0.03c0.01-0.01,0.01-0.01,0.01-0.02c0.01-0.01,0.02-0.03,0.03-0.04
	s0.02-0.03,0.03-0.04c0-0.01,0.01-0.01,0.01-0.02l0.03-0.03l6.22-6.11c0.01-0.01,0.02-0.01,0.02-0.02c0.01-0.01,0.02-0.01,0.03-0.02
	c0.01-0.01,0.01-0.01,0.02-0.02s0.02-0.01,0.03-0.02c0.01,0,0.02-0.01,0.02-0.02c0.01,0,0.02,0,0.03-0.01
	c0.01,0,0.02-0.01,0.03-0.01c0.01-0.01,0.02-0.01,0.02-0.02c0.02,0,0.02,0,0.03-0.01c0.01,0,0.02,0,0.03-0.01h0.03
	c0.01-0.01,0.02-0.01,0.03-0.01s0.02,0,0.03-0.01h0.07c0.01,0,0.02,0,0.02,0h19.08c0.34,0,0.62,0.28,0.62,0.62v13.63h-1.25V15.37
	l-4.97,5.03V29H30.7v-7h0.01v-1.23H26v-0.01h-8v0.01h-5.11v17.89h15.62c-0.01-0.05-0.01-0.1-0.01-0.16c0-0.13,0.01-0.26,0.04-0.38
	l0.53,0.54H30v0.93l0.16,0.16l2.13-2.13c0.14,0.27,0.21,0.56,0.21,0.88C32.5,39.6,31.6,40.5,30.5,40.5z M35.88,14.66H18.74
	l-4.95,4.86h17.28L35.88,14.66z M18.74,14.66l-4.95,4.86h17.28l4.81-4.86H18.74z M18.74,14.66l-4.95,4.86h17.28l4.81-4.86H18.74z"/>
<path d="M18.74,14.66l-4.95,4.86h17.28l4.81-4.86H18.74z M37.56,13.41H18.48c0,0-0.01,0-0.02,0h-0.07
	c-0.01,0.01-0.02,0.01-0.03,0.01s-0.02,0-0.03,0.01H18.3c-0.01,0.01-0.02,0.01-0.03,0.01c-0.01,0.01-0.01,0.01-0.03,0.01
	c0,0.01-0.01,0.01-0.02,0.02c-0.01,0-0.02,0.01-0.03,0.01c-0.01,0.01-0.02,0.01-0.03,0.01c0,0.01-0.01,0.02-0.02,0.02
	c-0.01,0.01-0.02,0.01-0.03,0.02s-0.01,0.01-0.02,0.02c-0.01,0.01-0.02,0.01-0.03,0.02c0,0.01-0.01,0.01-0.02,0.02l-6.22,6.11
	l-0.03,0.03c0,0.01-0.01,0.01-0.01,0.02c-0.01,0.01-0.02,0.03-0.03,0.04s-0.02,0.03-0.03,0.04c0,0.01,0,0.01-0.01,0.02
	c0,0.01-0.01,0.02-0.01,0.03c-0.01,0.01-0.01,0.02-0.01,0.02c-0.01,0.01-0.01,0.02-0.01,0.03c-0.01,0.01-0.01,0.02-0.02,0.03v0.03
	c-0.01,0.01-0.01,0.02-0.01,0.03c0,0.02-0.01,0.04-0.01,0.06v0.06c0,0,0,0,0,0.01v19.13c0,0.35,0.28,0.63,0.62,0.63h16.83
	c-0.33-0.32-0.54-0.76-0.58-1.25H12.89V20.77H18v-0.01h8v0.01h4.71V22H30.7v7h1.26v-8.6l4.97-5.03v12.29h1.25V14.03
	C38.18,13.69,37.9,13.41,37.56,13.41z"/>
<g>
	<path class="st1" d="M29.69,37.09c-0.93,0-1.68,0.75-1.68,1.68c0,0.93,0.75,1.68,1.68,1.68c0.93,0,1.68-0.75,1.68-1.68
		C31.37,37.85,30.61,37.09,29.69,37.09z M29.69,39.95c-0.65,0-1.17-0.53-1.17-1.17c0-0.65,0.53-1.17,1.17-1.17s1.17,0.53,1.17,1.17
		C30.86,39.42,30.33,39.95,29.69,39.95z"/>
	<path class="st1" d="M29.69,38.07c-0.39,0-0.7,0.31-0.7,0.7c0,0.39,0.31,0.7,0.7,0.7c0.39,0,0.7-0.31,0.7-0.7
		C30.39,38.39,30.07,38.07,29.69,38.07z"/>
	<path class="st1" d="M38.29,37.09c-0.93,0-1.68,0.75-1.68,1.68c0,0.93,0.75,1.68,1.68,1.68c0.93,0,1.68-0.75,1.68-1.68
		C39.97,37.85,39.21,37.09,38.29,37.09z M38.29,39.95c-0.65,0-1.17-0.53-1.17-1.17c0-0.65,0.53-1.17,1.17-1.17
		c0.65,0,1.17,0.53,1.17,1.17C39.46,39.42,38.93,39.95,38.29,39.95z"/>
	<path class="st1" d="M38.29,38.07c-0.39,0-0.7,0.31-0.7,0.7c0,0.39,0.31,0.7,0.7,0.7c0.39,0,0.7-0.31,0.7-0.7
		C38.99,38.39,38.67,38.07,38.29,38.07z"/>
	<path class="st1" d="M41.49,33.74l-1.41-0.59c-0.18-0.32-0.86-1.51-1.4-1.97c-0.05-0.04-0.11-0.06-0.17-0.06h-2.09v-1.4
		c0-0.14-0.11-0.26-0.26-0.26H25.88c-0.14,0-0.26,0.11-0.26,0.26v6.24c0,0.14,0.11,0.26,0.26,0.26h0.44v1.86
		c0,0.14,0.11,0.26,0.26,0.26h1.13c0.11,0,0.2-0.07,0.24-0.17c0.26-0.74,0.96-1.23,1.74-1.23c0.78,0,1.48,0.49,1.74,1.23
		c0.04,0.1,0.13,0.17,0.24,0.17h4.64c0.11,0,0.2-0.07,0.24-0.17c0.26-0.74,0.96-1.23,1.74-1.23s1.48,0.49,1.74,1.23
		c0.04,0.1,0.13,0.17,0.24,0.17h1.13c0.14,0,0.26-0.11,0.26-0.26v-2.09v-2.01C41.65,33.87,41.59,33.78,41.49,33.74z M36.43,31.62
		h1.99c0.54,0.52,1.25,1.83,1.26,1.85c0.03,0.05,0.07,0.09,0.13,0.11l1.34,0.56v1.58h-4.71V31.62z M26.14,30.72h0.65v4.26h-0.65
		V30.72z M27.11,30.72h0.69v4.26h-0.69V30.72z M28.12,30.72h0.69v4.26h-0.69V30.72z M29.14,30.72h0.69v4.26h-0.69V30.72z
		 M30.16,30.72h0.69v4.26h-0.69V30.72z M31.17,30.72h0.69v4.26h-0.69V30.72z M32.19,30.72h0.69v4.26h-0.69V30.72z M33.2,30.72h0.69
		v4.26H33.2V30.72z M34.22,30.72h0.69v4.26h-0.69V30.72z M35.23,30.72h0.68v4.26h-0.68V30.72z M26.14,29.97h9.78v0.38h-9.78V29.97z
		 M26.14,35.7v-0.36h9.78v0.36H26.14z M41.14,37.82h-0.7c-0.38-0.84-1.22-1.4-2.15-1.4c-0.93,0-1.78,0.56-2.15,1.4h-4.29
		c-0.38-0.84-1.22-1.4-2.15-1.4c-0.93,0-1.78,0.56-2.15,1.4h-0.7v-1.58h9.34h4.97V37.82z"/>
	<path class="st1" d="M38.08,32.06h-1.35v1.6h2.48l-0.01-0.02C38.93,33.17,38.45,32.45,38.08,32.06z"/>
	<rect x="37.1" y="34.27" class="st1" width="0.81" height="0.29"/>
</g>
<rect x="36.93" y="25.75" width="1.25" height="5"/>
</svg>
